<svg width="166" height="50" viewBox="0 0 166 50" fill="none" xmlns="http://www.w3.org/2000/svg">
<path d="M45.4365 0.0153303C46.0164 -0.0588772 46.6469 0.152328 47.1975 0.305596C47.3205 0.424042 47.4452 0.539348 47.5657 0.660934C49.6301 2.74417 49.0612 9.39631 49.0447 12.2376C51.05 12.1922 54.1753 12.0869 55.7636 13.5174C56.5151 14.1941 56.7877 15.1622 56.8202 16.1455C56.8505 17.0708 56.6347 17.9636 55.9717 18.64C54.4276 20.2152 51.1168 20.0873 49.0687 20.0831C49.0264 22.3861 48.3249 28.2216 49.539 30.0685C49.7534 30.3942 50.1127 30.7087 50.5197 30.7256C51.6111 30.7712 52.7194 28.9948 53.3764 28.2867C53.9333 27.687 54.7233 26.9689 55.6092 27.0266C56.2348 27.0677 56.7574 27.5147 57.1325 27.981C57.8272 28.8455 57.9076 29.7808 57.7524 30.8526C57.7214 31.06 57.6854 31.2665 57.6445 31.4722C57.6038 31.6779 57.5582 31.8825 57.5078 32.0861C57.4574 32.2897 57.4021 32.492 57.3419 32.6929C57.282 32.8938 57.2174 33.0934 57.1482 33.2914C57.0787 33.4893 57.0047 33.6855 56.9261 33.88C56.8475 34.0744 56.7644 34.2669 56.6766 34.4573C56.5889 34.6478 56.4968 34.8362 56.4004 35.0225C56.3037 35.2086 56.2028 35.3924 56.0975 35.5739C55.9923 35.7552 55.8829 35.9341 55.7693 36.1105C55.6557 36.2866 55.5379 36.4601 55.416 36.6308C55.2942 36.8015 55.1685 36.9692 55.0389 37.134C54.9092 37.2989 54.7756 37.4607 54.6382 37.6192C54.5008 37.7777 54.3598 37.9328 54.2152 38.0847C54.0706 38.2365 53.9225 38.3848 53.7708 38.5296C53.6192 38.6746 53.4642 38.8159 53.3059 38.9535C53.1476 39.091 52.9862 39.2248 52.8216 39.3548C50.0944 41.1529 47.1704 41.6506 43.9523 41.2185C41.3919 40.8749 38.9895 39.8368 37.3969 37.7276C34.6864 34.1377 34.8647 28.4993 34.8984 24.2275C34.9093 22.8596 34.841 21.4228 35.0308 20.0688C34.2168 19.9067 33.2656 19.7585 32.5201 19.3792C31.6515 18.9371 30.9457 18.2458 30.6674 17.294C30.3986 16.3732 30.5701 15.3395 31.057 14.5215C31.9447 13.0299 33.4203 12.5561 35.002 12.1817C34.7563 9.45596 34.5494 5.79325 36.3575 3.53876C38.4144 0.974321 42.3751 0.319011 45.4365 0.0153303Z" fill="#FE0444"/>
<path d="M12.0121 9.14341C12.4161 9.11068 12.8207 9.09109 13.226 9.08462C17.0671 9.05922 21.9123 10.1258 24.7245 12.9257C25.5219 13.72 26.3314 14.7906 26.288 15.9685C26.2649 16.593 26.0268 17.1912 25.547 17.6031C23.9524 18.9731 19.1652 15.7987 17.5132 15.1845C16.9158 14.9624 16.218 14.8249 15.5849 14.7646C14.473 14.6585 13.0079 14.8557 12.1551 15.6514C11.8885 15.9 11.7127 16.2456 11.7364 16.6181C11.9142 19.4106 21.7439 23.79 24.064 25.704C25.7003 27.054 26.7963 28.8307 26.9852 30.9736C27.1742 33.1153 26.5648 35.5333 25.1532 37.1765C22.9697 39.7175 19.5162 40.3232 16.363 40.6228C13.2423 40.8692 9.83671 40.4464 6.87525 39.4187C4.57653 38.6204 1.3405 36.9202 0.292745 34.5858C-0.0780077 33.7598 -0.0939912 32.8747 0.229954 32.0307C1.57854 28.5184 10.6419 34.5487 14.2446 32.8456C14.6191 32.6686 14.8968 32.4509 15.0464 32.065C14.6699 29.4666 9.70142 27.6471 7.62503 26.5311C6.35494 25.8484 5.1211 25.1166 3.99171 24.2153C2.19075 22.7773 0.75854 20.9027 0.525071 18.5367C0.336983 16.6324 0.883837 14.4401 2.11711 12.9497C4.4792 10.0953 8.54178 9.4391 12.0121 9.14341Z" fill="black"/>
<path d="M145.474 18.9425C146.377 18.9174 147.317 18.8723 148.205 19.0581C154.5 20.3759 149.81 29.8117 151.942 32.9195C152.252 33.3711 152.74 33.6256 153.273 33.7096C153.798 33.7923 154.289 33.7016 154.706 33.3602C156.32 32.041 155.359 24.5669 155.664 22.265C155.795 21.2821 156.188 20.3319 157.014 19.7371C158.181 18.8969 160.234 18.7565 161.626 18.9922C162.634 19.1629 163.515 19.6532 164.09 20.5129C166.042 23.4327 165.12 36.4318 164.43 40.2067C163.781 43.7598 162.297 46.4025 159.315 48.4777C158.154 49.1256 156.85 49.5263 155.541 49.735C152.046 50.2927 148.242 49.6805 145.35 47.5593C144.289 46.7809 142.756 45.542 142.6 44.1571C142.535 43.5823 142.756 42.8128 143.183 42.4053C144.377 41.2645 149.03 44.1 151.071 44.2165C152.146 44.2778 153.25 44.035 154.042 43.2652C155.113 42.2249 155.223 40.8392 155.27 39.4395C154.976 39.5786 154.679 39.7091 154.378 39.8308C152.088 40.7436 149.131 40.9619 146.85 39.9367C144.823 39.0257 143.366 37.1756 142.62 35.1184C141.404 31.7616 141.289 24.1673 142.861 20.9364C143.443 19.7406 144.255 19.3421 145.474 18.9425Z" fill="black"/>
<path d="M93.3653 9.98882C93.9342 9.97398 94.5018 9.99339 95.0607 10.1144C100.736 11.3443 96.6033 22.9417 98.3307 25.1006C98.8718 25.777 100.14 25.6415 100.915 25.6478C102.055 23.9732 101.84 21.9762 102.838 20.2614C103.176 20.0719 103.517 19.8804 103.872 19.7237C105.358 19.067 107.353 18.7379 108.882 19.3658C109.847 19.7622 110.575 20.5129 110.965 21.4782C111.56 22.946 111.494 24.84 110.855 26.2831C110.045 28.112 108.552 29.0516 106.77 29.7569C107.475 30.0274 108.258 30.2752 108.896 30.683C110.151 31.4859 111.022 32.6915 111.313 34.1571C111.646 35.8293 111.384 37.8452 110.437 39.274C109.039 40.3977 107.222 40.5181 105.498 40.3351C100.341 39.7874 103.065 36.3005 101.363 34.5412C100.68 33.8366 99.4035 33.9639 98.4982 33.9345C98.2402 35.359 98.0464 36.8602 97.2801 38.1189C96.6042 39.2289 95.5553 39.9567 94.2798 40.2096C93.0128 40.4607 91.4842 40.1616 90.4378 39.3956C89.2365 38.5162 89.0076 37.048 88.8395 35.6615C88.3874 31.9334 88.7139 28.1223 88.7165 24.3794C88.7185 21.0358 88.4011 17.4447 88.872 14.1367C89.015 13.1324 89.2137 12.249 89.8804 11.449C90.7877 10.3599 92.0373 10.1441 93.3653 9.98882Z" fill="black"/>
<path d="M65.4131 18.9639C66.8405 18.8837 68.5915 18.7693 69.7942 19.6735C70.4098 20.1361 70.7743 20.8074 70.9638 21.5424C71.6317 24.1294 70.8428 28.2961 71.2535 31.2616C71.3243 31.7725 71.3848 32.2908 71.703 32.7169C72.0093 33.1265 72.5136 33.4612 73.0334 33.4978C73.4595 33.528 73.8539 33.3531 74.1822 33.0951C77.2144 30.7104 73.8785 23.0533 77.1316 19.9012C77.9037 19.1532 78.8815 18.9819 79.9195 18.9771C81.2287 18.9708 82.8225 19.1477 83.7715 20.1316C85.9241 22.3632 85.3025 29.0213 85.2799 32.0579C85.297 33.3636 85.3376 34.688 85.216 35.9894C85.0898 37.3417 84.7388 38.7782 83.6137 39.6493C82.4426 40.5561 80.6882 40.6853 79.2717 40.4442C77.7076 40.1782 76.7557 39.4852 75.8615 38.2348C74.288 39.0197 72.6735 39.7132 70.9456 40.0737C68.8478 40.5112 66.1729 40.7524 64.3211 39.4775C62.8084 38.4357 62.1251 36.6944 61.7958 34.9557C61.1373 31.4802 60.734 22.9683 62.8318 20.0953C63.4052 19.3099 64.5178 19.1272 65.4131 18.9639Z" fill="black"/>
<path d="M126.816 18.5527C127.072 18.515 127.321 18.5004 127.58 18.4967C130.481 18.4551 133.844 19.0522 135.962 21.2007C137.142 22.3978 137.819 23.9547 137.784 25.6449C137.76 26.828 137.298 27.8714 136.443 28.6886C133.6 31.4031 128.284 30.6402 124.658 30.6305C124.826 30.9599 125.002 31.2901 125.197 31.6049C128.277 36.5945 134.381 31.672 137.594 32.4241C137.912 32.6778 138.058 32.8042 138.129 33.2198C138.344 34.4873 137.525 35.623 136.795 36.5649C134.918 38.5505 132.873 39.921 130.143 40.4128C126.448 41.0781 122.12 40.4022 119.028 38.1988C116.899 36.6824 115.514 34.5022 115.085 31.9195C114.593 28.9654 115.156 25.7805 116.939 23.3388C119.274 20.1413 123.094 19.1227 126.816 18.5527ZM124.627 27.7927C125.366 27.7938 126.108 27.8081 126.847 27.7804L128.724 27.5446C129.053 26.3022 129.54 24.4159 128.799 23.2497C128.548 22.8536 128.152 22.5659 127.683 22.4985C127.399 22.458 127.085 22.4731 126.799 22.4785C125.174 23.9992 124.895 25.6817 124.627 27.7927Z" fill="black"/>
</svg>
