<svg width="40" height="40" viewBox="0 0 40 40" fill="none" xmlns="http://www.w3.org/2000/svg">
<path d="M11.6583 20.0002C11.6583 24.6018 15.4016 28.3452 20.0033 28.3452C24.6049 28.3452 28.3483 24.6018 28.3483 20.0002C28.3483 15.3985 24.6049 11.6552 20.0033 11.6552C15.4016 11.6552 11.6583 15.3985 11.6583 20.0002ZM18.3333 31.6668H21.6666V36.6668H18.3333V31.6668ZM18.3333 3.3335H21.6666V8.3335H18.3333V3.3335ZM3.33325 18.3335H8.33325V21.6668H3.33325V18.3335ZM31.6666 18.3335H36.6666V21.6668H31.6666V18.3335ZM9.39492 32.9635L7.03825 30.6068L10.5733 27.0718L12.9299 29.4285L9.39492 32.9635ZM27.0699 10.5735L30.6066 7.03683L32.9633 9.3935L29.4266 12.9302L27.0699 10.5735ZM10.5733 12.9318L7.03825 9.39516L9.39659 7.0385L12.9299 10.5752L10.5733 12.9318ZM32.9633 30.6068L30.6066 32.9635L27.0699 29.4268L29.4266 27.0702L32.9633 30.6068Z" fill="#FBA504"/>
</svg>
