<svg width="166" height="50" viewBox="0 0 166 50" fill="none" xmlns="http://www.w3.org/2000/svg">
<path d="M45.4362 0.0153303C46.0162 -0.0588772 46.6467 0.152328 47.1972 0.305596C47.3202 0.424042 47.445 0.539348 47.5654 0.660934C49.6298 2.74417 49.061 9.39631 49.0444 12.2376C51.0498 12.1922 54.175 12.0869 55.7634 13.5174C56.5149 14.1941 56.7874 15.1622 56.82 16.1455C56.8502 17.0708 56.6345 17.9636 55.9714 18.64C54.4273 20.2152 51.1165 20.0873 49.0684 20.0831C49.0262 22.3861 48.3246 28.2216 49.5388 30.0685C49.7531 30.3942 50.1125 30.7087 50.5195 30.7256C51.6109 30.7712 52.7191 28.9948 53.3762 28.2867C53.933 27.687 54.723 26.9689 55.609 27.0266C56.2346 27.0677 56.7572 27.5147 57.1322 27.981C57.8269 28.8455 57.9074 29.7808 57.7521 30.8526C57.7211 31.06 57.6852 31.2665 57.6442 31.4722C57.6035 31.6779 57.558 31.8825 57.5075 32.0861C57.4571 32.2897 57.4018 32.492 57.3417 32.6929C57.2818 32.8938 57.2172 33.0934 57.1479 33.2914C57.0785 33.4893 57.0044 33.6855 56.9259 33.88C56.8473 34.0744 56.7641 34.2669 56.6764 34.4573C56.5887 34.6478 56.4966 34.8362 56.4001 35.0225C56.3035 35.2086 56.2025 35.3924 56.0973 35.5739C55.9921 35.7552 55.8827 35.9341 55.7691 36.1105C55.6555 36.2866 55.5377 36.4601 55.4157 36.6308C55.294 36.8015 55.1683 36.9692 55.0387 37.134C54.9089 37.2989 54.7754 37.4607 54.638 37.6192C54.5006 37.7777 54.3596 37.9328 54.215 38.0847C54.0704 38.2365 53.9223 38.3848 53.7706 38.5296C53.619 38.6746 53.464 38.8159 53.3057 38.9535C53.1474 39.091 52.9859 39.2248 52.8213 39.3548C50.0942 41.1529 47.1701 41.6506 43.9521 41.2185C41.3916 40.8749 38.9893 39.8368 37.3967 37.7276C34.6861 34.1377 34.8645 28.4993 34.8982 24.2275C34.909 22.8596 34.8408 21.4228 35.0306 20.0688C34.2166 19.9067 33.2653 19.7585 32.5198 19.3792C31.6513 18.9371 30.9455 18.2458 30.6672 17.294C30.3983 16.3732 30.5699 15.3395 31.0568 14.5215C31.9444 13.0299 33.42 12.5561 35.0018 12.1817C34.756 9.45596 34.5491 5.79325 36.3572 3.53876C38.4142 0.974321 42.3749 0.319011 45.4362 0.0153303Z" fill="#FE0444"/>
<path d="M12.0121 9.14322C12.4161 9.11049 12.8207 9.0909 13.226 9.08443C17.0671 9.05902 21.9123 10.1256 24.7245 12.9255C25.5219 13.7198 26.3314 14.7904 26.288 15.9683C26.2649 16.5928 26.0268 17.191 25.547 17.6029C23.9524 18.9729 19.1652 15.7985 17.5132 15.1843C16.9158 14.9622 16.218 14.8247 15.5849 14.7644C14.473 14.6583 13.0079 14.8555 12.1551 15.6512C11.8886 15.8998 11.7127 16.2455 11.7364 16.6179C11.9142 19.4104 21.7439 23.7898 24.064 25.7038C25.7003 27.0538 26.7963 28.8305 26.9852 30.9734C27.1742 33.1151 26.5648 35.5331 25.1532 37.1763C22.9697 39.7173 19.5162 40.323 16.363 40.6227C13.2423 40.869 9.83671 40.4462 6.87525 39.4185C4.57653 38.6202 1.3405 36.92 0.292745 34.5856C-0.0780077 33.7596 -0.0939912 32.8745 0.229954 32.0306C1.57854 28.5183 10.6419 34.5485 14.2446 32.8454C14.6191 32.6684 14.8968 32.4507 15.0464 32.0648C14.6699 29.4664 9.70142 27.6469 7.62503 26.5309C6.35494 25.8482 5.1211 25.1164 3.99171 24.2151C2.19075 22.7771 0.75854 20.9026 0.525071 18.5365C0.336983 16.6322 0.883837 14.4399 2.11711 12.9495C4.4792 10.0951 8.54178 9.43891 12.0121 9.14322Z" fill="white"/>
<path d="M145.474 18.9424C146.377 18.9173 147.317 18.8722 148.204 19.058C154.5 20.3758 149.81 29.8116 151.942 32.9194C152.252 33.3709 152.74 33.6255 153.273 33.7094C153.797 33.7922 154.288 33.7015 154.706 33.3601C156.32 32.0409 155.359 24.5668 155.664 22.2649C155.794 21.282 156.188 20.3318 157.014 19.737C158.181 18.8968 160.234 18.7563 161.625 18.9921C162.634 19.1628 163.515 19.6531 164.09 20.5128C166.042 23.4326 165.12 36.4317 164.43 40.2066C163.781 43.7597 162.296 46.4024 159.314 48.4776C158.154 49.1255 156.85 49.5262 155.541 49.7349C152.046 50.2926 148.242 49.6803 145.35 47.5592C144.289 46.7808 142.756 45.5419 142.6 44.157C142.534 43.5822 142.756 42.8127 143.183 42.4052C144.376 41.2644 149.029 44.0999 151.071 44.2164C152.145 44.2777 153.249 44.0349 154.042 43.2651C155.112 42.2248 155.223 40.8391 155.269 39.4394C154.976 39.5785 154.678 39.7089 154.377 39.8307C152.088 40.7435 149.131 40.9618 146.85 39.9366C144.823 39.0256 143.365 37.1755 142.62 35.1183C141.404 31.7615 141.289 24.1672 142.861 20.9363C143.443 19.7404 144.254 19.342 145.474 18.9424Z" fill="white"/>
<path d="M93.3653 9.98867C93.9342 9.97383 94.5018 9.99324 95.0607 10.1143C100.736 11.3441 96.6033 22.9416 98.3307 25.1005C98.8718 25.7769 100.14 25.6413 100.915 25.6476C102.055 23.9731 101.84 21.976 102.838 20.2613C103.176 20.0718 103.517 19.8803 103.872 19.7236C105.358 19.0668 107.353 18.7377 108.882 19.3657C109.847 19.7621 110.575 20.5127 110.965 21.478C111.56 22.9459 111.494 24.8399 110.855 26.2829C110.045 28.1119 108.552 29.0515 106.77 29.7567C107.475 30.0273 108.258 30.275 108.896 30.6829C110.151 31.4857 111.022 32.6913 111.313 34.1569C111.646 35.8292 111.384 37.845 110.437 39.2738C109.039 40.3975 107.222 40.5179 105.498 40.335C100.341 39.7873 103.065 36.3004 101.363 34.5411C100.68 33.8364 99.4036 33.9637 98.4982 33.9343C98.2402 35.3588 98.0464 36.8601 97.2801 38.1188C96.6042 39.2287 95.5553 39.9565 94.2798 40.2094C93.0128 40.4606 91.4842 40.1615 90.4378 39.3954C89.2365 38.516 89.0076 37.0479 88.8395 35.6613C88.3874 31.9333 88.7139 28.1221 88.7165 24.3792C88.7185 21.0356 88.4011 17.4445 88.872 14.1366C89.015 13.1322 89.2137 12.2489 89.8804 11.4488C90.7877 10.3597 92.0373 10.1439 93.3653 9.98867Z" fill="white"/>
<path d="M65.4131 18.9642C66.8405 18.884 68.5915 18.7696 69.7942 19.6738C70.4098 20.1364 70.7743 20.8077 70.9638 21.5427C71.6317 24.1296 70.8428 28.2964 71.2535 31.2618C71.3243 31.7727 71.3848 32.2911 71.703 32.7172C72.0093 33.1267 72.5136 33.4615 73.0334 33.4981C73.4595 33.5283 73.8539 33.3534 74.1822 33.0954C77.2144 30.7107 73.8785 23.0536 77.1316 19.9015C77.9037 19.1535 78.8815 18.9822 79.9195 18.9774C81.2287 18.9711 82.8225 19.148 83.7715 20.1319C85.9241 22.3635 85.3025 29.0216 85.2799 32.0581C85.297 33.3639 85.3376 34.6882 85.216 35.9897C85.0898 37.342 84.7388 38.7785 83.6137 39.6496C82.4426 40.5563 80.6882 40.6856 79.2717 40.4445C77.7076 40.1785 76.7557 39.4855 75.8615 38.2351C74.288 39.02 72.6735 39.7135 70.9456 40.074C68.8478 40.5115 66.1729 40.7527 64.3211 39.4778C62.8084 38.436 62.1251 36.6947 61.7958 34.956C61.1373 31.4805 60.734 22.9686 62.8318 20.0956C63.4052 19.3101 64.5178 19.1275 65.4131 18.9642Z" fill="white"/>
<path d="M126.815 18.5526C127.072 18.5149 127.321 18.5003 127.58 18.4966C130.48 18.455 133.844 19.0521 135.962 21.2006C137.142 22.3977 137.818 23.9546 137.784 25.6448C137.76 26.8279 137.298 27.8713 136.442 28.6885C133.599 31.403 128.284 30.6401 124.658 30.6304C124.826 30.9598 125.002 31.29 125.197 31.6048C128.277 36.5944 134.38 31.6719 137.593 32.424C137.912 32.6777 138.058 32.8041 138.128 33.2197C138.344 34.4872 137.524 35.6229 136.794 36.5648C134.918 38.5504 132.873 39.9209 130.143 40.4127C126.448 41.078 122.12 40.4021 119.027 38.1987C116.899 36.6823 115.514 34.5021 115.084 31.9194C114.593 28.9653 115.155 25.7804 116.938 23.3387C119.274 20.1412 123.094 19.1226 126.815 18.5526ZM124.627 27.7926C125.366 27.7937 126.108 27.808 126.846 27.7803L128.723 27.5445C129.053 26.3021 129.539 24.4158 128.799 23.2496C128.548 22.8535 128.152 22.5658 127.683 22.4984C127.399 22.4579 127.085 22.473 126.799 22.4784C125.173 23.9991 124.895 25.6816 124.627 27.7926Z" fill="white"/>
</svg>
